<svg width="12" height="12" viewBox="0 0 12 12" fill="none" xmlns="http://www.w3.org/2000/svg">
<g id="close" clip-path="url(#clip0_687_476)">
<path id="Vector" d="M9.14937 2.85535C8.95437 2.66035 8.63937 2.66035 8.44437 2.85535L5.99938 5.29535L3.55438 2.85035C3.35938 2.65535 3.04438 2.65535 2.84937 2.85035C2.65438 3.04535 2.65438 3.36035 2.84937 3.55535L5.29438 6.00035L2.84937 8.44535C2.65438 8.64035 2.65438 8.95535 2.84937 9.15035C3.04438 9.34535 3.35938 9.34535 3.55438 9.15035L5.99938 6.70535L8.44437 9.15035C8.63937 9.34535 8.95437 9.34535 9.14937 9.15035C9.34437 8.95535 9.34437 8.64035 9.14937 8.44535L6.70437 6.00035L9.14937 3.55535C9.33937 3.36535 9.33937 3.04535 9.14937 2.85535Z" fill="#E9EBFF"/>
</g>
<defs>
<clipPath id="clip0_687_476">
<rect width="12" height="12" fill="white"/>
</clipPath>
</defs>
</svg>
